<?xml version="1.0" standalone="no"?>
<svg xmlns:xlink="http://www.w3.org/1999/xlink" id="wave" style="transform:rotate(0deg); transition: 0.3s" viewBox="0 0 1440 180" version="1.1" xmlns="http://www.w3.org/2000/svg"><defs><linearGradient id="sw-gradient-0" x1="0" x2="0" y1="1" y2="0"><stop stop-color="rgba(4, 12, 32, 1)" offset="0%"/><stop stop-color="rgba(4, 12, 32, 1)" offset="100%"/></linearGradient></defs><path style="transform:translate(0, 0px); opacity:1" fill="url(#sw-gradient-0)" d="M0,0L26.7,15C53.3,30,107,60,160,66C213.3,72,267,54,320,60C373.3,66,427,96,480,99C533.3,102,587,78,640,60C693.3,42,747,30,800,36C853.3,42,907,66,960,84C1013.3,102,1067,114,1120,105C1173.3,96,1227,66,1280,45C1333.3,24,1387,12,1440,12C1493.3,12,1547,24,1600,27C1653.3,30,1707,24,1760,30C1813.3,36,1867,54,1920,51C1973.3,48,2027,24,2080,36C2133.3,48,2187,96,2240,123C2293.3,150,2347,156,2400,147C2453.3,138,2507,114,2560,96C2613.3,78,2667,66,2720,60C2773.3,54,2827,54,2880,63C2933.3,72,2987,90,3040,93C3093.3,96,3147,84,3200,78C3253.3,72,3307,72,3360,75C3413.3,78,3467,84,3520,96C3573.3,108,3627,126,3680,117C3733.3,108,3787,72,3813,54L3840,36L3840,180L3813.3,180C3786.7,180,3733,180,3680,180C3626.7,180,3573,180,3520,180C3466.7,180,3413,180,3360,180C3306.7,180,3253,180,3200,180C3146.7,180,3093,180,3040,180C2986.7,180,2933,180,2880,180C2826.7,180,2773,180,2720,180C2666.7,180,2613,180,2560,180C2506.7,180,2453,180,2400,180C2346.7,180,2293,180,2240,180C2186.7,180,2133,180,2080,180C2026.7,180,1973,180,1920,180C1866.7,180,1813,180,1760,180C1706.7,180,1653,180,1600,180C1546.7,180,1493,180,1440,180C1386.7,180,1333,180,1280,180C1226.7,180,1173,180,1120,180C1066.7,180,1013,180,960,180C906.7,180,853,180,800,180C746.7,180,693,180,640,180C586.7,180,533,180,480,180C426.7,180,373,180,320,180C266.7,180,213,180,160,180C106.7,180,53,180,27,180L0,180Z"/></svg>